<svg xmlns="http://www.w3.org/2000/svg" xmlns:xlink="http://www.w3.org/1999/xlink" width="1920" zoomAndPan="magnify" viewBox="0 0 1440 809.999993" height="1080" preserveAspectRatio="xMidYMid meet" version="1.0"><defs><g/><clipPath id="95be6f4cf8"><path d="M 185.195312 81 L 618.695312 81 L 618.695312 715.5 L 185.195312 715.5 Z M 185.195312 81 " clip-rule="nonzero"/></clipPath><clipPath id="d6f89960d2"><path d="M 357.066406 255.3125 L 648 255.3125 L 648 554.5625 L 357.066406 554.5625 Z M 357.066406 255.3125 " clip-rule="nonzero"/></clipPath></defs><g clip-path="url(#95be6f4cf8)"><path fill="#ffffff" d="M 461.9375 81.074219 L 543.546875 81.074219 C 552.867188 81.074219 560.425781 88.597656 560.46875 97.902344 C 560.46875 97.957031 560.46875 98.003906 560.472656 98.054688 L 564.328125 153.210938 C 564.417969 154.40625 565.253906 155.402344 566.40625 155.703125 C 584 160.300781 600.832031 166.742188 616.695312 174.835938 C 616.707031 174.835938 616.714844 174.847656 616.722656 174.855469 C 618.238281 175.636719 618.675781 177.597656 617.644531 178.949219 L 578.996094 229.65625 C 578.226562 230.667969 576.859375 231.03125 575.6875 230.523438 C 569.09375 227.652344 562.292969 225.167969 555.320312 223.074219 C 546.398438 220.40625 537.183594 218.402344 527.746094 217.109375 C 522.085938 216.339844 516.351562 215.828125 510.542969 215.582031 C 507.960938 215.472656 505.355469 215.417969 502.738281 215.417969 C 497.722656 215.417969 492.75 215.621094 487.828125 216.015625 C 434.230469 220.332031 387.15625 247.707031 356.558594 288.203125 C 333.421875 318.820312 319.703125 356.933594 319.703125 398.25 C 319.703125 499.230469 401.652344 581.082031 502.738281 581.082031 C 528.675781 581.082031 553.339844 575.695312 575.695312 565.980469 C 576.863281 565.476562 578.226562 565.835938 578.996094 566.847656 L 582.625 571.609375 L 617.625 617.523438 C 618.664062 618.886719 618.21875 620.871094 616.695312 621.660156 C 616.511719 621.753906 616.328125 621.851562 616.140625 621.949219 C 615.894531 622.078125 615.648438 622.199219 615.398438 622.324219 C 607.441406 626.324219 599.242188 629.914062 590.824219 633.0625 C 582.871094 636.039062 574.726562 638.625 566.40625 640.796875 C 565.253906 641.097656 564.417969 642.097656 564.328125 643.289062 L 560.472656 698.445312 C 560.46875 698.496094 560.46875 698.542969 560.46875 698.597656 C 560.425781 707.894531 552.867188 715.425781 543.546875 715.425781 L 461.9375 715.425781 C 452.613281 715.425781 445.050781 707.894531 445.015625 698.597656 C 445.015625 698.542969 445.007812 698.496094 445.007812 698.445312 L 441.148438 643.289062 C 441.066406 642.097656 440.234375 641.097656 439.070312 640.796875 C 416.707031 634.953125 395.554688 626.113281 376.078125 614.710938 C 375.046875 614.109375 373.75 614.226562 372.847656 615.007812 L 331.050781 651.300781 C 331.019531 651.335938 330.984375 651.363281 330.945312 651.402344 C 324.332031 657.953125 313.660156 657.929688 307.070312 651.351562 L 271.898438 616.21875 L 249.363281 593.703125 C 242.769531 587.125 242.75 576.453125 249.3125 569.855469 C 249.34375 569.820312 249.378906 569.785156 249.40625 569.746094 L 285.742188 527.996094 C 286.527344 527.105469 286.636719 525.800781 286.035156 524.769531 C 274.625 505.3125 265.773438 484.191406 259.921875 461.847656 C 259.621094 460.691406 258.621094 459.851562 257.429688 459.773438 L 202.207031 455.921875 C 202.160156 455.914062 202.109375 455.914062 202.0625 455.914062 C 192.746094 455.875 185.210938 448.324219 185.210938 439.011719 L 185.210938 357.488281 C 185.210938 348.175781 192.746094 340.625 202.0625 340.585938 C 202.109375 340.585938 202.160156 340.585938 202.207031 340.578125 L 257.429688 336.726562 C 258.621094 336.648438 259.621094 335.808594 259.921875 334.652344 C 265.773438 312.308594 274.625 291.1875 286.035156 271.722656 C 286.636719 270.699219 286.527344 269.402344 285.742188 268.503906 L 279.617188 261.457031 L 249.40625 226.753906 C 249.378906 226.714844 249.34375 226.679688 249.3125 226.644531 C 242.75 220.046875 242.769531 209.375 249.363281 202.796875 L 271.898438 180.28125 L 307.070312 145.148438 C 313.660156 138.566406 324.332031 138.546875 330.945312 145.097656 C 330.984375 145.136719 331.019531 145.164062 331.050781 145.199219 L 372.847656 181.492188 C 373.75 182.273438 375.046875 182.390625 376.078125 181.789062 C 392.902344 171.945312 410.972656 163.996094 430.007812 158.257812 C 433.007812 157.351562 436.027344 156.496094 439.070312 155.703125 C 440.234375 155.402344 441.066406 154.398438 441.148438 153.210938 L 441.722656 145.039062 L 442.199219 138.214844 L 443.628906 117.773438 L 445.007812 98.054688 C 445.007812 98.003906 445.015625 97.957031 445.015625 97.902344 C 445.050781 88.597656 452.613281 81.074219 461.9375 81.074219 " fill-opacity="1" fill-rule="nonzero"/></g><g clip-path="url(#d6f89960d2)"><path fill="#ffffff" d="M 387.804688 391.925781 C 387.328125 396.210938 387.0625 400.566406 387.0625 404.980469 C 387.0625 409.394531 387.328125 413.746094 387.804688 418.035156 L 357.085938 433.664062 C 359.425781 445.71875 363.21875 457.257812 368.265625 468.089844 L 402.308594 462.675781 C 406.640625 470.289062 411.785156 477.382812 417.652344 483.804688 L 402.003906 514.472656 C 410.832031 522.699219 420.652344 529.863281 431.273438 535.777344 L 455.621094 511.394531 C 463.484375 514.96875 471.792969 517.722656 480.464844 519.492188 L 485.824219 553.472656 L 485.832031 553.476562 C 491.765625 554.191406 497.796875 554.601562 503.929688 554.601562 C 510.058594 554.601562 516.089844 554.191406 522.03125 553.476562 C 522.03125 553.476562 522.03125 553.472656 522.03125 553.472656 L 527.390625 519.492188 C 536.0625 517.722656 544.375 514.96875 552.234375 511.394531 L 576.582031 535.777344 C 587.203125 529.863281 597.023438 522.695312 605.855469 514.472656 L 590.203125 483.804688 C 596.074219 477.382812 601.214844 470.289062 605.546875 462.675781 L 639.589844 468.089844 C 642.789062 461.226562 645.480469 454.074219 647.617188 446.691406 L 573.984375 446.691406 C 559.753906 470.535156 533.710938 486.515625 503.929688 486.515625 C 458.898438 486.515625 422.394531 450.011719 422.394531 404.980469 C 422.394531 359.949219 458.898438 323.445312 503.929688 323.445312 C 533.710938 323.445312 559.753906 339.425781 573.980469 363.269531 L 647.617188 363.269531 C 645.480469 355.882812 642.789062 348.734375 639.589844 341.871094 L 605.546875 347.285156 C 601.214844 339.667969 596.074219 332.578125 590.203125 326.15625 L 605.855469 295.488281 C 597.023438 287.265625 587.203125 280.097656 576.582031 274.183594 L 552.230469 298.566406 C 544.375 294.992188 536.0625 292.234375 527.390625 290.46875 L 522.03125 256.488281 C 522.03125 256.488281 522.03125 256.484375 522.03125 256.484375 C 516.089844 255.769531 510.058594 255.355469 503.929688 255.355469 C 497.796875 255.355469 491.765625 255.769531 485.832031 256.484375 C 485.828125 256.484375 485.824219 256.488281 485.824219 256.488281 L 480.464844 290.46875 C 471.792969 292.234375 463.484375 294.992188 455.621094 298.566406 L 431.273438 274.183594 C 420.652344 280.097656 410.832031 287.265625 402.003906 295.488281 L 417.652344 326.15625 C 411.78125 332.578125 406.640625 339.667969 402.308594 347.285156 L 368.265625 341.871094 C 363.21875 352.707031 359.425781 364.238281 357.085938 376.296875 L 387.804688 391.925781 " fill-opacity="1" fill-rule="nonzero"/></g><path fill="#ffffff" d="M 530.335938 407.003906 L 513.765625 435.699219 C 513.042969 436.957031 511.707031 437.730469 510.261719 437.730469 L 450.167969 437.730469 C 460.78125 453.691406 478.914062 464.222656 499.519531 464.222656 C 521.367188 464.222656 540.402344 452.367188 550.671875 434.765625 L 799.398438 434.765625 C 803.574219 434.765625 806.960938 431.378906 806.960938 427.199219 C 806.960938 423.023438 803.574219 419.636719 799.398438 419.636719 L 672.339844 419.636719 C 669.988281 419.636719 668.082031 417.734375 668.082031 415.378906 C 668.082031 413.03125 669.988281 411.128906 672.339844 411.128906 L 759.324219 411.128906 C 762.71875 411.128906 765.46875 408.375 765.46875 404.980469 C 765.46875 401.582031 762.71875 398.832031 759.324219 398.832031 L 672.339844 398.832031 C 669.988281 398.832031 668.082031 396.929688 668.082031 394.578125 C 668.082031 392.226562 669.988281 390.320312 672.339844 390.320312 L 711.464844 390.320312 C 715.644531 390.320312 719.03125 386.933594 719.03125 382.757812 C 719.03125 378.578125 715.644531 375.191406 711.464844 375.191406 L 550.671875 375.191406 C 540.402344 357.59375 521.367188 345.734375 499.519531 345.734375 C 478.914062 345.734375 460.78125 356.265625 450.167969 372.230469 L 510.261719 372.230469 C 511.707031 372.230469 513.042969 373.003906 513.765625 374.253906 L 530.335938 402.953125 C 531.058594 404.207031 531.058594 405.753906 530.335938 407.003906 " fill-opacity="1" fill-rule="nonzero"/><g fill="#ffffff" fill-opacity="1"><g transform="translate(953.557704, 240.146713)"><g><path d="M 52.828125 -18.484375 C 54.347656 -18.484375 55.734375 -17.742188 56.984375 -16.265625 C 58.242188 -14.796875 58.875 -12.863281 58.875 -10.46875 C 58.875 -7.519531 57.265625 -5.035156 54.046875 -3.015625 C 50.828125 -1.003906 47.203125 0 43.171875 0 C 36.410156 0 30.710938 -1.441406 26.078125 -4.328125 C 21.453125 -7.222656 19.140625 -13.359375 19.140625 -22.734375 L 19.140625 -67.859375 L 11.609375 -67.859375 C 8.992188 -67.859375 6.8125 -68.726562 5.0625 -70.46875 C 3.320312 -72.21875 2.453125 -74.398438 2.453125 -77.015625 C 2.453125 -79.523438 3.320312 -81.625 5.0625 -83.3125 C 6.8125 -85.007812 8.992188 -85.859375 11.609375 -85.859375 L 19.140625 -85.859375 L 19.140625 -96.3125 C 19.140625 -99.15625 20.09375 -101.53125 22 -103.4375 C 23.90625 -105.34375 26.273438 -106.296875 29.109375 -106.296875 C 31.835938 -106.296875 34.125 -105.34375 35.96875 -103.4375 C 37.820312 -101.53125 38.75 -99.15625 38.75 -96.3125 L 38.75 -85.859375 L 50.375 -85.859375 C 52.988281 -85.859375 55.164062 -84.984375 56.90625 -83.234375 C 58.65625 -81.492188 59.53125 -79.316406 59.53125 -76.703125 C 59.53125 -74.191406 58.65625 -72.085938 56.90625 -70.390625 C 55.164062 -68.703125 52.988281 -67.859375 50.375 -67.859375 L 38.75 -67.859375 L 38.75 -23.546875 C 38.75 -21.253906 39.347656 -19.585938 40.546875 -18.546875 C 41.753906 -17.515625 43.394531 -17 45.46875 -17 C 46.332031 -17 47.53125 -17.21875 49.0625 -17.65625 C 50.363281 -18.207031 51.617188 -18.484375 52.828125 -18.484375 Z M 52.828125 -18.484375 "/></g></g></g><g fill="#ffffff" fill-opacity="1"><g transform="translate(1020.438758, 240.146713)"><g><path d="M 56.578125 -89.125 C 67.367188 -89.125 74.835938 -85.828125 78.984375 -79.234375 C 83.128906 -72.640625 85.203125 -63.507812 85.203125 -51.84375 L 85.203125 -9.96875 C 85.203125 -7.132812 84.273438 -4.765625 82.421875 -2.859375 C 80.566406 -0.953125 78.222656 0 75.390625 0 C 72.554688 0 70.210938 -0.953125 68.359375 -2.859375 C 66.503906 -4.765625 65.578125 -7.132812 65.578125 -9.96875 L 65.578125 -51.84375 C 65.578125 -57.832031 64.40625 -62.546875 62.0625 -65.984375 C 59.71875 -69.421875 55.601562 -71.140625 49.71875 -71.140625 C 43.613281 -71.140625 38.84375 -69.3125 35.40625 -65.65625 C 31.96875 -62 30.25 -57.394531 30.25 -51.84375 L 30.25 -9.96875 C 30.25 -7.132812 29.320312 -4.765625 27.46875 -2.859375 C 25.613281 -0.953125 23.269531 0 20.4375 0 C 17.601562 0 15.257812 -0.953125 13.40625 -2.859375 C 11.550781 -4.765625 10.625 -7.132812 10.625 -9.96875 L 10.625 -111.03125 C 10.625 -113.875 11.550781 -116.25 13.40625 -118.15625 C 15.257812 -120.0625 17.601562 -121.015625 20.4375 -121.015625 C 23.269531 -121.015625 25.613281 -120.0625 27.46875 -118.15625 C 29.320312 -116.25 30.25 -113.875 30.25 -111.03125 L 30.25 -74.890625 C 33.195312 -78.816406 36.929688 -82.171875 41.453125 -84.953125 C 45.972656 -87.734375 51.015625 -89.125 56.578125 -89.125 Z M 56.578125 -89.125 "/></g></g></g><g fill="#ffffff" fill-opacity="1"><g transform="translate(1116.263453, 240.146713)"><g><path d="M 89.125 -45.78125 C 89.019531 -43.164062 87.984375 -41.039062 86.015625 -39.40625 C 84.054688 -37.769531 81.769531 -36.953125 79.15625 -36.953125 L 25.1875 -36.953125 C 26.488281 -30.523438 29.484375 -25.484375 34.171875 -21.828125 C 38.859375 -18.179688 44.148438 -16.359375 50.046875 -16.359375 C 54.515625 -16.359375 58 -16.765625 60.5 -17.578125 C 63.007812 -18.398438 65 -19.273438 66.46875 -20.203125 C 67.945312 -21.128906 68.957031 -21.753906 69.5 -22.078125 C 71.457031 -23.054688 73.3125 -23.546875 75.0625 -23.546875 C 77.351562 -23.546875 79.316406 -22.726562 80.953125 -21.09375 C 82.585938 -19.457031 83.40625 -17.550781 83.40625 -15.375 C 83.40625 -12.425781 81.878906 -9.753906 78.828125 -7.359375 C 75.773438 -4.847656 71.6875 -2.71875 66.5625 -0.96875 C 61.4375 0.769531 56.253906 1.640625 51.015625 1.640625 C 41.859375 1.640625 33.875 -0.265625 27.0625 -4.078125 C 20.25 -7.898438 14.988281 -13.160156 11.28125 -19.859375 C 7.570312 -26.566406 5.71875 -34.117188 5.71875 -42.515625 C 5.71875 -51.890625 7.679688 -60.117188 11.609375 -67.203125 C 15.535156 -74.296875 20.710938 -79.722656 27.140625 -83.484375 C 33.578125 -87.242188 40.445312 -89.125 47.75 -89.125 C 54.945312 -89.125 61.734375 -87.160156 68.109375 -83.234375 C 74.484375 -79.304688 79.578125 -74.019531 83.390625 -67.375 C 87.210938 -60.726562 89.125 -53.53125 89.125 -45.78125 Z M 47.75 -71.140625 C 35.101562 -71.140625 27.632812 -65.195312 25.34375 -53.3125 L 68.1875 -53.3125 L 68.1875 -54.453125 C 67.75 -59.035156 65.515625 -62.960938 61.484375 -66.234375 C 57.453125 -69.503906 52.875 -71.140625 47.75 -71.140625 Z M 47.75 -71.140625 "/></g></g></g><g fill="#ffffff" fill-opacity="1"><g transform="translate(835.327241, 468.896701)"><g><path d="M 56.09375 -89.125 C 59.363281 -89.125 62.113281 -88.195312 64.34375 -86.34375 C 66.582031 -84.488281 67.703125 -82.304688 67.703125 -79.796875 C 67.703125 -76.421875 66.828125 -73.890625 65.078125 -72.203125 C 63.335938 -70.515625 61.269531 -69.671875 58.875 -69.671875 C 57.238281 -69.671875 55.382812 -70.050781 53.3125 -70.8125 C 52.988281 -70.914062 52.253906 -71.128906 51.109375 -71.453125 C 49.960938 -71.785156 48.734375 -71.953125 47.421875 -71.953125 C 44.585938 -71.953125 41.863281 -71.078125 39.25 -69.328125 C 36.632812 -67.585938 34.476562 -64.945312 32.78125 -61.40625 C 31.09375 -57.863281 30.25 -53.640625 30.25 -48.734375 L 30.25 -9.96875 C 30.25 -7.132812 29.320312 -4.765625 27.46875 -2.859375 C 25.613281 -0.953125 23.269531 0 20.4375 0 C 17.601562 0 15.257812 -0.953125 13.40625 -2.859375 C 11.550781 -4.765625 10.625 -7.132812 10.625 -9.96875 L 10.625 -77.515625 C 10.625 -80.347656 11.550781 -82.71875 13.40625 -84.625 C 15.257812 -86.53125 17.601562 -87.484375 20.4375 -87.484375 C 23.269531 -87.484375 25.613281 -86.53125 27.46875 -84.625 C 29.320312 -82.71875 30.25 -80.347656 30.25 -77.515625 L 30.25 -75.390625 C 32.757812 -79.859375 36.359375 -83.265625 41.046875 -85.609375 C 45.734375 -87.953125 50.75 -89.125 56.09375 -89.125 Z M 56.09375 -89.125 "/></g></g></g><g fill="#ffffff" fill-opacity="1"><g transform="translate(906.296388, 468.896701)"><g><path d="M 29.109375 -9.96875 C 29.109375 -7.132812 28.179688 -4.765625 26.328125 -2.859375 C 24.472656 -0.953125 22.128906 0 19.296875 0 C 16.460938 0 14.117188 -0.953125 12.265625 -2.859375 C 10.410156 -4.765625 9.484375 -7.132812 9.484375 -9.96875 L 9.484375 -77.515625 C 9.484375 -80.347656 10.410156 -82.71875 12.265625 -84.625 C 14.117188 -86.53125 16.460938 -87.484375 19.296875 -87.484375 C 22.128906 -87.484375 24.472656 -86.53125 26.328125 -84.625 C 28.179688 -82.71875 29.109375 -80.347656 29.109375 -77.515625 Z M 19.140625 -98.125 C 15.429688 -98.125 12.8125 -98.722656 11.28125 -99.921875 C 9.757812 -101.117188 9 -103.242188 9 -106.296875 L 9 -109.40625 C 9 -112.457031 9.816406 -114.582031 11.453125 -115.78125 C 13.085938 -116.976562 15.703125 -117.578125 19.296875 -117.578125 C 23.117188 -117.578125 25.789062 -116.976562 27.3125 -115.78125 C 28.84375 -114.582031 29.609375 -112.457031 29.609375 -109.40625 L 29.609375 -106.296875 C 29.609375 -103.128906 28.816406 -100.972656 27.234375 -99.828125 C 25.648438 -98.691406 22.953125 -98.125 19.140625 -98.125 Z M 19.140625 -98.125 "/></g></g></g><g fill="#ffffff" fill-opacity="1"><g transform="translate(944.8879, 468.896701)"><g><path d="M 83.078125 -89.125 C 85.910156 -89.125 88.253906 -88.195312 90.109375 -86.34375 C 91.960938 -84.488281 92.890625 -82.09375 92.890625 -79.15625 L 92.890625 -6.375 C 92.890625 6.925781 88.769531 16.765625 80.53125 23.140625 C 72.300781 29.515625 61.863281 32.703125 49.21875 32.703125 C 45.945312 32.703125 41.445312 32.15625 35.71875 31.0625 C 30 29.976562 25.941406 28.890625 23.546875 27.796875 C 18.203125 25.503906 15.53125 22.34375 15.53125 18.3125 C 15.53125 17.550781 15.695312 16.679688 16.03125 15.703125 C 16.675781 13.296875 17.789062 11.46875 19.375 10.21875 C 20.957031 8.96875 22.675781 8.34375 24.53125 8.34375 C 25.625 8.34375 26.660156 8.503906 27.640625 8.828125 C 28.078125 8.941406 30.773438 9.953125 35.734375 11.859375 C 40.691406 13.765625 45.1875 14.71875 49.21875 14.71875 C 57.289062 14.71875 63.316406 13.109375 67.296875 9.890625 C 71.273438 6.671875 73.265625 2.117188 73.265625 -3.765625 L 73.265625 -11.609375 C 70.867188 -8.234375 67.242188 -5.179688 62.390625 -2.453125 C 57.535156 0.273438 52.328125 1.640625 46.765625 1.640625 C 39.140625 1.640625 32.191406 -0.289062 25.921875 -4.15625 C 19.648438 -8.03125 14.710938 -13.398438 11.109375 -20.265625 C 7.515625 -27.140625 5.71875 -34.9375 5.71875 -43.65625 C 5.71875 -52.382812 7.488281 -60.207031 11.03125 -67.125 C 14.582031 -74.050781 19.4375 -79.445312 25.59375 -83.3125 C 31.75 -87.1875 38.585938 -89.125 46.109375 -89.125 C 51.671875 -89.125 56.847656 -87.976562 61.640625 -85.6875 C 66.441406 -83.394531 70.316406 -80.613281 73.265625 -77.34375 L 73.265625 -79.15625 C 73.265625 -81.988281 74.191406 -84.359375 76.046875 -86.265625 C 77.898438 -88.171875 80.242188 -89.125 83.078125 -89.125 Z M 49.21875 -16.359375 C 56.519531 -16.359375 62.488281 -18.945312 67.125 -24.125 C 71.757812 -29.300781 74.078125 -35.8125 74.078125 -43.65625 C 74.078125 -51.507812 71.757812 -58.050781 67.125 -63.28125 C 62.488281 -68.519531 56.519531 -71.140625 49.21875 -71.140625 C 41.914062 -71.140625 35.972656 -68.519531 31.390625 -63.28125 C 26.816406 -58.050781 24.53125 -51.507812 24.53125 -43.65625 C 24.53125 -35.8125 26.816406 -29.300781 31.390625 -24.125 C 35.972656 -18.945312 41.914062 -16.359375 49.21875 -16.359375 Z M 49.21875 -16.359375 "/></g></g></g><g fill="#ffffff" fill-opacity="1"><g transform="translate(1048.398184, 468.896701)"><g><path d="M 56.578125 -89.125 C 67.367188 -89.125 74.835938 -85.828125 78.984375 -79.234375 C 83.128906 -72.640625 85.203125 -63.507812 85.203125 -51.84375 L 85.203125 -9.96875 C 85.203125 -7.132812 84.273438 -4.765625 82.421875 -2.859375 C 80.566406 -0.953125 78.222656 0 75.390625 0 C 72.554688 0 70.210938 -0.953125 68.359375 -2.859375 C 66.503906 -4.765625 65.578125 -7.132812 65.578125 -9.96875 L 65.578125 -51.84375 C 65.578125 -57.832031 64.40625 -62.546875 62.0625 -65.984375 C 59.71875 -69.421875 55.601562 -71.140625 49.71875 -71.140625 C 43.613281 -71.140625 38.84375 -69.3125 35.40625 -65.65625 C 31.96875 -62 30.25 -57.394531 30.25 -51.84375 L 30.25 -9.96875 C 30.25 -7.132812 29.320312 -4.765625 27.46875 -2.859375 C 25.613281 -0.953125 23.269531 0 20.4375 0 C 17.601562 0 15.257812 -0.953125 13.40625 -2.859375 C 11.550781 -4.765625 10.625 -7.132812 10.625 -9.96875 L 10.625 -111.03125 C 10.625 -113.875 11.550781 -116.25 13.40625 -118.15625 C 15.257812 -120.0625 17.601562 -121.015625 20.4375 -121.015625 C 23.269531 -121.015625 25.613281 -120.0625 27.46875 -118.15625 C 29.320312 -116.25 30.25 -113.875 30.25 -111.03125 L 30.25 -74.890625 C 33.195312 -78.816406 36.929688 -82.171875 41.453125 -84.953125 C 45.972656 -87.734375 51.015625 -89.125 56.578125 -89.125 Z M 56.578125 -89.125 "/></g></g></g><g fill="#ffffff" fill-opacity="1"><g transform="translate(1144.222878, 468.896701)"><g><path d="M 52.828125 -18.484375 C 54.347656 -18.484375 55.734375 -17.742188 56.984375 -16.265625 C 58.242188 -14.796875 58.875 -12.863281 58.875 -10.46875 C 58.875 -7.519531 57.265625 -5.035156 54.046875 -3.015625 C 50.828125 -1.003906 47.203125 0 43.171875 0 C 36.410156 0 30.710938 -1.441406 26.078125 -4.328125 C 21.453125 -7.222656 19.140625 -13.359375 19.140625 -22.734375 L 19.140625 -67.859375 L 11.609375 -67.859375 C 8.992188 -67.859375 6.8125 -68.726562 5.0625 -70.46875 C 3.320312 -72.21875 2.453125 -74.398438 2.453125 -77.015625 C 2.453125 -79.523438 3.320312 -81.625 5.0625 -83.3125 C 6.8125 -85.007812 8.992188 -85.859375 11.609375 -85.859375 L 19.140625 -85.859375 L 19.140625 -96.3125 C 19.140625 -99.15625 20.09375 -101.53125 22 -103.4375 C 23.90625 -105.34375 26.273438 -106.296875 29.109375 -106.296875 C 31.835938 -106.296875 34.125 -105.34375 35.96875 -103.4375 C 37.820312 -101.53125 38.75 -99.15625 38.75 -96.3125 L 38.75 -85.859375 L 50.375 -85.859375 C 52.988281 -85.859375 55.164062 -84.984375 56.90625 -83.234375 C 58.65625 -81.492188 59.53125 -79.316406 59.53125 -76.703125 C 59.53125 -74.191406 58.65625 -72.085938 56.90625 -70.390625 C 55.164062 -68.703125 52.988281 -67.859375 50.375 -67.859375 L 38.75 -67.859375 L 38.75 -23.546875 C 38.75 -21.253906 39.347656 -19.585938 40.546875 -18.546875 C 41.753906 -17.515625 43.394531 -17 45.46875 -17 C 46.332031 -17 47.53125 -17.21875 49.0625 -17.65625 C 50.363281 -18.207031 51.617188 -18.484375 52.828125 -18.484375 Z M 52.828125 -18.484375 "/></g></g></g><g fill="#ffffff" fill-opacity="1"><g transform="translate(834.342866, 697.64669)"><g><path d="M 48.890625 -87.65625 C 57.503906 -87.65625 64.671875 -86.289062 70.390625 -83.5625 C 76.117188 -80.832031 78.984375 -77.34375 78.984375 -73.09375 C 78.984375 -71.238281 78.382812 -69.578125 77.1875 -68.109375 C 75.988281 -66.640625 74.460938 -65.90625 72.609375 -65.90625 C 71.191406 -65.90625 70.070312 -66.125 69.25 -66.5625 C 68.4375 -67 67.320312 -67.707031 65.90625 -68.6875 C 65.25 -69.34375 64.210938 -70.101562 62.796875 -70.96875 C 61.484375 -71.625 59.628906 -72.171875 57.234375 -72.609375 C 54.835938 -73.046875 52.65625 -73.265625 50.6875 -73.265625 C 45.019531 -73.265625 40.003906 -71.953125 35.640625 -69.328125 C 31.285156 -66.710938 27.90625 -63.085938 25.5 -58.453125 C 23.101562 -53.828125 21.90625 -48.679688 21.90625 -43.015625 C 21.90625 -37.234375 23.078125 -32.050781 25.421875 -27.46875 C 27.765625 -22.894531 31.0625 -19.296875 35.3125 -16.671875 C 39.570312 -14.054688 44.425781 -12.75 49.875 -12.75 C 55.539062 -12.75 60.117188 -13.625 63.609375 -15.375 C 64.378906 -15.8125 65.414062 -16.519531 66.71875 -17.5 C 67.8125 -18.375 68.765625 -19.023438 69.578125 -19.453125 C 70.398438 -19.890625 71.410156 -20.109375 72.609375 -20.109375 C 74.785156 -20.109375 76.5 -19.425781 77.75 -18.0625 C 79.007812 -16.707031 79.640625 -14.9375 79.640625 -12.75 C 79.640625 -10.46875 78.191406 -8.207031 75.296875 -5.96875 C 72.410156 -3.726562 68.539062 -1.898438 63.6875 -0.484375 C 58.84375 0.929688 53.640625 1.640625 48.078125 1.640625 C 39.796875 1.640625 32.492188 -0.289062 26.171875 -4.15625 C 19.847656 -8.03125 14.96875 -13.375 11.53125 -20.1875 C 8.09375 -27.007812 6.375 -34.617188 6.375 -43.015625 C 6.375 -51.398438 8.171875 -59 11.765625 -65.8125 C 15.367188 -72.632812 20.382812 -77.976562 26.8125 -81.84375 C 33.25 -85.71875 40.609375 -87.65625 48.890625 -87.65625 Z M 48.890625 -87.65625 "/></g></g></g><g fill="#ffffff" fill-opacity="1"><g transform="translate(918.39388, 697.64669)"><g><path d="M 92.71875 -42.84375 C 92.71875 -34.34375 90.8125 -26.710938 87 -19.953125 C 83.1875 -13.191406 77.976562 -7.898438 71.375 -4.078125 C 64.78125 -0.265625 57.503906 1.640625 49.546875 1.640625 C 41.585938 1.640625 34.3125 -0.265625 27.71875 -4.078125 C 21.125 -7.898438 15.914062 -13.191406 12.09375 -19.953125 C 8.28125 -26.710938 6.375 -34.34375 6.375 -42.84375 C 6.375 -51.34375 8.28125 -59.023438 12.09375 -65.890625 C 15.914062 -72.765625 21.125 -78.109375 27.71875 -81.921875 C 34.3125 -85.742188 41.585938 -87.65625 49.546875 -87.65625 C 57.503906 -87.65625 64.78125 -85.742188 71.375 -81.921875 C 77.976562 -78.109375 83.1875 -72.765625 87 -65.890625 C 90.8125 -59.023438 92.71875 -51.34375 92.71875 -42.84375 Z M 77.1875 -42.84375 C 77.1875 -48.726562 75.957031 -53.988281 73.5 -58.625 C 71.050781 -63.257812 67.726562 -66.859375 63.53125 -69.421875 C 59.332031 -71.984375 54.671875 -73.265625 49.546875 -73.265625 C 44.421875 -73.265625 39.757812 -71.984375 35.5625 -69.421875 C 31.363281 -66.859375 28.035156 -63.257812 25.578125 -58.625 C 23.128906 -53.988281 21.90625 -48.726562 21.90625 -42.84375 C 21.90625 -37.0625 23.128906 -31.878906 25.578125 -27.296875 C 28.035156 -22.722656 31.363281 -19.15625 35.5625 -16.59375 C 39.757812 -14.03125 44.421875 -12.75 49.546875 -12.75 C 54.671875 -12.75 59.332031 -14.03125 63.53125 -16.59375 C 67.726562 -19.15625 71.050781 -22.722656 73.5 -27.296875 C 75.957031 -31.878906 77.1875 -37.0625 77.1875 -42.84375 Z M 77.1875 -42.84375 "/></g></g></g><g fill="#ffffff" fill-opacity="1"><g transform="translate(1017.489044, 697.64669)"><g><path d="M 81.109375 -121.015625 C 83.398438 -121.015625 85.28125 -120.273438 86.75 -118.796875 C 88.226562 -117.328125 88.96875 -115.445312 88.96875 -113.15625 L 88.96875 -7.84375 C 88.96875 -5.664062 88.226562 -3.8125 86.75 -2.28125 C 85.28125 -0.757812 83.398438 0 81.109375 0 C 78.816406 0 76.960938 -0.734375 75.546875 -2.203125 C 74.128906 -3.679688 73.421875 -5.5625 73.421875 -7.84375 L 73.421875 -12.421875 C 70.703125 -8.503906 66.859375 -5.179688 61.890625 -2.453125 C 56.929688 0.273438 51.617188 1.640625 45.953125 1.640625 C 38.535156 1.640625 31.828125 -0.265625 25.828125 -4.078125 C 19.835938 -7.898438 15.097656 -13.21875 11.609375 -20.03125 C 8.117188 -26.84375 6.375 -34.503906 6.375 -43.015625 C 6.375 -51.515625 8.09375 -59.171875 11.53125 -65.984375 C 14.96875 -72.796875 19.679688 -78.109375 25.671875 -81.921875 C 31.671875 -85.742188 38.269531 -87.65625 45.46875 -87.65625 C 51.238281 -87.65625 56.578125 -86.453125 61.484375 -84.046875 C 66.390625 -81.648438 70.367188 -78.546875 73.421875 -74.734375 L 73.421875 -113.15625 C 73.421875 -115.445312 74.128906 -117.328125 75.546875 -118.796875 C 76.960938 -120.273438 78.816406 -121.015625 81.109375 -121.015625 Z M 47.75 -12.75 C 52.875 -12.75 57.425781 -14.054688 61.40625 -16.671875 C 65.382812 -19.296875 68.488281 -22.894531 70.71875 -27.46875 C 72.957031 -32.050781 74.078125 -37.234375 74.078125 -43.015625 C 74.078125 -48.679688 72.957031 -53.828125 70.71875 -58.453125 C 68.488281 -63.085938 65.382812 -66.710938 61.40625 -69.328125 C 57.425781 -71.953125 52.875 -73.265625 47.75 -73.265625 C 42.625 -73.265625 38.070312 -71.953125 34.09375 -69.328125 C 30.113281 -66.710938 27.003906 -63.085938 24.765625 -58.453125 C 22.535156 -53.828125 21.421875 -48.679688 21.421875 -43.015625 C 21.421875 -37.234375 22.535156 -32.050781 24.765625 -27.46875 C 27.003906 -22.894531 30.113281 -19.296875 34.09375 -16.671875 C 38.070312 -14.054688 42.625 -12.75 47.75 -12.75 Z M 47.75 -12.75 "/></g></g></g><g fill="#ffffff" fill-opacity="1"><g transform="translate(1117.892381, 697.64669)"><g><path d="M 86.828125 -46.109375 C 86.722656 -44.148438 85.90625 -42.488281 84.375 -41.125 C 82.851562 -39.757812 81.054688 -39.078125 78.984375 -39.078125 L 21.421875 -39.078125 C 22.179688 -31.117188 25.207031 -24.738281 30.5 -19.9375 C 35.789062 -15.144531 42.25 -12.75 49.875 -12.75 C 55.101562 -12.75 59.351562 -13.507812 62.625 -15.03125 C 65.894531 -16.5625 68.785156 -18.53125 71.296875 -20.9375 C 72.929688 -21.914062 74.515625 -22.40625 76.046875 -22.40625 C 77.898438 -22.40625 79.453125 -21.75 80.703125 -20.4375 C 81.953125 -19.132812 82.578125 -17.609375 82.578125 -15.859375 C 82.578125 -13.566406 81.488281 -11.492188 79.3125 -9.640625 C 76.144531 -6.484375 71.945312 -3.8125 66.71875 -1.625 C 61.488281 0.550781 56.144531 1.640625 50.6875 1.640625 C 41.863281 1.640625 34.097656 -0.210938 27.390625 -3.921875 C 20.679688 -7.628906 15.5 -12.804688 11.84375 -19.453125 C 8.195312 -26.109375 6.375 -33.632812 6.375 -42.03125 C 6.375 -51.1875 8.253906 -59.222656 12.015625 -66.140625 C 15.773438 -73.066406 20.734375 -78.382812 26.890625 -82.09375 C 33.054688 -85.800781 39.679688 -87.65625 46.765625 -87.65625 C 53.742188 -87.65625 60.285156 -85.851562 66.390625 -82.25 C 72.492188 -78.65625 77.398438 -73.695312 81.109375 -67.375 C 84.816406 -61.050781 86.722656 -53.960938 86.828125 -46.109375 Z M 46.765625 -73.265625 C 40.660156 -73.265625 35.375 -71.546875 30.90625 -68.109375 C 26.4375 -64.671875 23.492188 -59.359375 22.078125 -52.171875 L 70.3125 -52.171875 L 70.3125 -53.46875 C 69.769531 -59.25 67.179688 -63.992188 62.546875 -67.703125 C 57.910156 -71.410156 52.648438 -73.265625 46.765625 -73.265625 Z M 46.765625 -73.265625 "/></g></g></g></svg>