<svg xmlns="http://www.w3.org/2000/svg" xmlns:xlink="http://www.w3.org/1999/xlink" width="500" zoomAndPan="magnify" viewBox="0 0 375 374.999991" height="500" preserveAspectRatio="xMidYMid meet" version="1.0"><defs><clipPath id="0a74d62b7d"><path d="M 0 0 L 255.75 0 L 255.75 375 L 0 375 Z M 0 0 " clip-rule="nonzero"/></clipPath><clipPath id="ffbfdada02"><path d="M 96.484375 99.261719 L 268 99.261719 L 268 275.511719 L 96.484375 275.511719 Z M 96.484375 99.261719 " clip-rule="nonzero"/></clipPath><clipPath id="840337ff90"><path d="M 151 152 L 361.234375 152 L 361.234375 223 L 151 223 Z M 151 152 " clip-rule="nonzero"/></clipPath></defs><g clip-path="url(#0a74d62b7d)"><path fill="#ffffff" d="M 163.265625 0.0507812 L 211.414062 0.0507812 C 216.914062 0.0507812 221.371094 4.496094 221.398438 9.992188 C 221.398438 10.027344 221.398438 10.054688 221.402344 10.082031 L 223.675781 42.683594 C 223.726562 43.386719 224.21875 43.976562 224.902344 44.15625 C 235.28125 46.871094 245.210938 50.679688 254.570312 55.464844 C 254.578125 55.464844 254.582031 55.46875 254.585938 55.472656 C 255.480469 55.9375 255.738281 57.09375 255.128906 57.894531 L 232.328125 87.863281 C 231.871094 88.457031 231.066406 88.671875 230.375 88.375 C 226.488281 86.675781 222.472656 85.207031 218.359375 83.972656 C 213.097656 82.394531 207.660156 81.210938 202.09375 80.445312 C 198.753906 79.992188 195.371094 79.6875 191.945312 79.542969 C 190.417969 79.480469 188.882812 79.445312 187.339844 79.445312 C 184.378906 79.445312 181.445312 79.566406 178.542969 79.800781 C 146.921875 82.351562 119.148438 98.53125 101.097656 122.460938 C 87.445312 140.558594 79.351562 163.082031 79.351562 187.5 C 79.351562 247.179688 127.699219 295.554688 187.339844 295.554688 C 202.640625 295.554688 217.191406 292.371094 230.378906 286.628906 C 231.070312 286.332031 231.871094 286.542969 232.328125 287.140625 L 234.46875 289.953125 L 255.117188 317.089844 C 255.730469 317.898438 255.46875 319.070312 254.570312 319.535156 C 254.460938 319.59375 254.351562 319.648438 254.242188 319.707031 C 254.097656 319.78125 253.953125 319.855469 253.804688 319.925781 C 249.109375 322.292969 244.269531 324.414062 239.308594 326.273438 C 234.613281 328.03125 229.808594 329.5625 224.902344 330.84375 C 224.21875 331.023438 223.726562 331.617188 223.675781 332.316406 L 221.402344 364.917969 C 221.398438 364.945312 221.398438 364.972656 221.398438 365.007812 C 221.371094 370.5 216.914062 374.949219 211.414062 374.949219 L 163.265625 374.949219 C 157.765625 374.949219 153.304688 370.5 153.285156 365.007812 C 153.285156 364.972656 153.28125 364.945312 153.28125 364.917969 L 151.003906 332.316406 C 150.953125 331.617188 150.460938 331.023438 149.777344 330.84375 C 136.582031 327.390625 124.101562 322.167969 112.613281 315.429688 C 112.003906 315.074219 111.238281 315.144531 110.707031 315.601562 L 86.050781 337.054688 C 86.03125 337.074219 86.007812 337.089844 85.988281 337.113281 C 82.085938 340.984375 75.789062 340.972656 71.898438 337.082031 L 51.152344 316.320312 L 37.855469 303.015625 C 33.964844 299.125 33.957031 292.820312 37.824219 288.917969 C 37.84375 288.898438 37.863281 288.875 37.882812 288.851562 L 59.316406 264.179688 C 59.78125 263.652344 59.847656 262.882812 59.492188 262.273438 C 52.761719 250.773438 47.535156 238.292969 44.085938 225.085938 C 43.90625 224.402344 43.320312 223.90625 42.613281 223.859375 L 10.035156 221.585938 C 10.007812 221.578125 9.976562 221.578125 9.949219 221.578125 C 4.453125 221.554688 0.0078125 217.09375 0.0078125 211.589844 L 0.0078125 163.410156 C 0.0078125 157.90625 4.453125 153.445312 9.949219 153.421875 C 9.976562 153.421875 10.007812 153.421875 10.035156 153.414062 L 42.613281 151.140625 C 43.320312 151.09375 43.90625 150.597656 44.085938 149.914062 C 47.535156 136.707031 52.761719 124.226562 59.492188 112.722656 C 59.847656 112.117188 59.78125 111.351562 59.316406 110.820312 L 55.703125 106.65625 L 37.882812 86.148438 C 37.863281 86.121094 37.84375 86.101562 37.824219 86.082031 C 33.957031 82.179688 33.964844 75.875 37.855469 71.984375 L 51.152344 58.679688 L 71.898438 37.917969 C 75.789062 34.027344 82.085938 34.015625 85.988281 37.886719 C 86.007812 37.910156 86.03125 37.925781 86.050781 37.945312 L 110.707031 59.398438 C 111.238281 59.855469 112.003906 59.925781 112.613281 59.570312 C 122.539062 53.753906 133.199219 49.058594 144.429688 45.664062 C 146.199219 45.128906 147.980469 44.625 149.777344 44.15625 C 150.460938 43.976562 150.953125 43.382812 151.003906 42.683594 L 151.339844 37.851562 L 151.625 33.816406 L 152.464844 21.738281 L 153.28125 10.082031 C 153.28125 10.054688 153.285156 10.027344 153.285156 9.992188 C 153.304688 4.496094 157.765625 0.0507812 163.265625 0.0507812 " fill-opacity="1" fill-rule="nonzero"/></g><g clip-path="url(#ffbfdada02)"><path fill="#00adb5" d="M 114.5625 179.722656 C 114.285156 182.246094 114.125 184.8125 114.125 187.410156 C 114.125 190.011719 114.285156 192.574219 114.5625 195.101562 L 96.492188 204.304688 C 97.867188 211.40625 100.097656 218.203125 103.070312 224.582031 L 123.097656 221.394531 C 125.644531 225.878906 128.671875 230.054688 132.125 233.835938 L 122.917969 251.898438 C 128.113281 256.746094 133.890625 260.964844 140.140625 264.449219 L 154.464844 250.085938 C 159.089844 252.191406 163.980469 253.816406 169.082031 254.855469 L 172.234375 274.871094 L 172.238281 274.871094 C 175.730469 275.292969 179.277344 275.535156 182.886719 275.535156 C 186.492188 275.535156 190.039062 275.292969 193.535156 274.871094 C 193.535156 274.871094 193.539062 274.871094 193.539062 274.871094 L 196.6875 254.855469 C 201.792969 253.816406 206.679688 252.191406 211.304688 250.085938 L 225.632812 264.449219 C 231.882812 260.964844 237.65625 256.742188 242.855469 251.898438 L 233.644531 233.835938 C 237.097656 230.054688 240.125 225.878906 242.671875 221.394531 L 262.703125 224.582031 C 264.585938 220.539062 266.167969 216.328125 267.425781 211.980469 L 224.101562 211.980469 C 215.730469 226.023438 200.410156 235.433594 182.886719 235.433594 C 156.390625 235.433594 134.914062 213.933594 134.914062 187.410156 C 134.914062 160.890625 156.390625 139.390625 182.886719 139.390625 C 200.410156 139.390625 215.730469 148.800781 224.101562 162.84375 L 267.425781 162.84375 C 266.167969 158.496094 264.585938 154.285156 262.703125 150.242188 L 242.671875 153.433594 C 240.125 148.945312 237.097656 144.769531 233.644531 140.988281 L 242.855469 122.925781 C 237.65625 118.082031 231.882812 113.859375 225.632812 110.375 L 211.304688 124.738281 C 206.679688 122.632812 201.792969 121.007812 196.6875 119.96875 L 193.539062 99.953125 C 193.539062 99.953125 193.535156 99.953125 193.535156 99.953125 C 190.039062 99.53125 186.492188 99.289062 182.886719 99.289062 C 179.277344 99.289062 175.730469 99.53125 172.238281 99.953125 C 172.234375 99.953125 172.234375 99.953125 172.234375 99.953125 L 169.082031 119.96875 C 163.980469 121.007812 159.089844 122.632812 154.464844 124.738281 L 140.140625 110.375 C 133.890625 113.859375 128.113281 118.082031 122.917969 122.925781 L 132.125 140.988281 C 128.671875 144.769531 125.644531 148.945312 123.097656 153.433594 L 103.070312 150.242188 C 100.097656 156.625 97.867188 163.417969 96.492188 170.519531 L 114.5625 179.722656 " fill-opacity="1" fill-rule="nonzero"/></g><g clip-path="url(#840337ff90)"><path fill="#ffffff" d="M 198.421875 188.605469 L 188.675781 205.507812 C 188.25 206.246094 187.460938 206.699219 186.609375 206.699219 L 151.253906 206.699219 C 157.5 216.101562 168.167969 222.304688 180.292969 222.304688 C 193.144531 222.304688 204.34375 215.320312 210.386719 204.957031 L 356.726562 204.957031 C 359.183594 204.957031 361.175781 202.960938 361.175781 200.5 C 361.175781 198.039062 359.183594 196.046875 356.726562 196.046875 L 281.96875 196.046875 C 280.585938 196.046875 279.464844 194.921875 279.464844 193.539062 C 279.464844 192.15625 280.585938 191.03125 281.96875 191.03125 L 333.144531 191.03125 C 335.144531 191.03125 336.761719 189.414062 336.761719 187.410156 C 336.761719 185.410156 335.144531 183.792969 333.144531 183.792969 L 281.96875 183.792969 C 280.585938 183.792969 279.464844 182.667969 279.464844 181.285156 C 279.464844 179.902344 280.585938 178.777344 281.96875 178.777344 L 304.988281 178.777344 C 307.449219 178.777344 309.441406 176.785156 309.441406 174.324219 C 309.441406 171.863281 307.449219 169.867188 304.988281 169.867188 L 210.386719 169.867188 C 204.34375 159.503906 193.144531 152.519531 180.292969 152.519531 C 168.167969 152.519531 157.5 158.722656 151.253906 168.125 L 186.609375 168.125 C 187.460938 168.125 188.25 168.578125 188.675781 169.316406 L 198.421875 186.21875 C 198.847656 186.957031 198.847656 187.867188 198.421875 188.605469 " fill-opacity="1" fill-rule="nonzero"/></g></svg>